<?xml version="1.0" standalone="no"?>
<!DOCTYPE svg PUBLIC "-//W3C//DTD SVG 20010904//EN"
 "http://www.w3.org/TR/2001/REC-SVG-20010904/DTD/svg10.dtd">
<svg version="1.0" xmlns="http://www.w3.org/2000/svg"
 width="640.000000pt" height="1104.000000pt" viewBox="0 0 640.000000 1104.000000"
 preserveAspectRatio="xMidYMid meet">

<g transform="translate(0.000000,1104.000000) scale(0.100000,-0.100000)"
fill="#a47853" stroke="none">
<path d="M2935 11020 c-845 -62 -1495 -357 -2015 -915 -486 -521 -786 -1182
-875 -1925 -23 -188 -31 -574 -16 -752 48 -555 211 -1025 516 -1483 134 -202
247 -338 434 -525 165 -164 283 -262 456 -377 469 -311 1035 -479 1710 -506
l60 -2 -3 -40 c-7 -93 -55 -402 -87 -563 -257 -1279 -884 -2445 -1914 -3557
l-101 -109 132 -133 132 -132 115 61 c1168 619 2217 1468 3254 2635 715 805
1180 1677 1441 2701 147 577 219 1167 220 1817 1 470 -34 767 -139 1185 -123
490 -365 1034 -651 1465 -403 607 -987 980 -1739 1109 -253 44 -675 64 -930
46z m275 -3226 c0 -1339 -4 -2434 -8 -2434 -5 0 -60 7 -123 15 -648 85 -1172
328 -1545 717 -338 352 -546 779 -620 1269 -34 228 -29 652 12 929 150 1028
767 1662 1830 1879 151 31 433 71 447 64 4 -2 7 -1100 7 -2439z"/>
</g>
</svg>
