<?xml version="1.0" standalone="no"?>
<!DOCTYPE svg PUBLIC "-//W3C//DTD SVG 20010904//EN"
 "http://www.w3.org/TR/2001/REC-SVG-20010904/DTD/svg10.dtd">
<svg version="1.0" xmlns="http://www.w3.org/2000/svg"
 width="600.000000pt" height="329.000000pt" viewBox="0 0 600.000000 329.000000"
 preserveAspectRatio="xMidYMid meet">

<g transform="translate(0.000000,329.000000) scale(0.100000,-0.100000)"
fill="#eae6da" stroke="none">
<path d="M5798 2683 c6 -2 18 -2 25 0 6 3 1 5 -13 5 -14 0 -19 -2 -12 -5z"/>
<path d="M5875 2679 c-49 -4 -218 -13 -375 -19 -157 -6 -413 -20 -570 -30
-1032 -70 -1442 -187 -1371 -392 6 -17 43 -80 81 -139 127 -194 170 -312 170
-469 0 -97 -13 -174 -47 -280 -39 -120 -383 -799 -605 -1195 l-85 -150 1451
-3 c798 -1 1457 0 1464 3 9 3 12 68 12 279 l0 274 -137 113 c-856 703 -1470
1278 -1567 1466 -22 44 -20 72 8 114 91 133 513 261 1181 358 137 20 476 61
504 61 17 0 6 13 -12 15 -7 0 -52 -2 -102 -6z"/>
<path d="M4909 2676 c-2 -2 -211 -6 -464 -10 -1403 -19 -2127 -88 -2421 -231
-102 -49 -151 -96 -179 -169 -27 -71 -11 -128 76 -261 127 -195 151 -266 126
-373 -27 -115 -100 -210 -231 -296 -260 -172 -770 -371 -1638 -637 l-178 -54
0 -47 c0 -27 4 -48 8 -48 22 0 586 194 812 280 768 291 1144 507 1243 717 28
60 32 78 31 148 -1 92 -21 147 -103 275 -109 170 -129 237 -91 314 81 169 391
258 1085 311 285 21 552 34 835 39 l245 5 -300 -14 c-791 -36 -1288 -93 -1544
-178 -99 -32 -154 -67 -205 -130 -26 -32 -31 -48 -34 -105 -4 -67 -3 -68 72
-217 89 -176 111 -251 102 -347 -16 -179 -100 -287 -351 -455 -310 -208 -987
-541 -1652 -813 l-153 -62 0 -159 0 -159 1168 0 1167 1 342 427 c959 1199 918
1141 918 1292 0 75 -4 93 -32 152 -17 36 -54 102 -82 145 -28 43 -60 101 -72
128 -92 206 103 348 583 425 320 51 641 73 1458 103 41 2 -63 4 -231 5 -168 1
-308 0 -310 -2z m-701 -33 c-16 -2 -40 -2 -55 0 -16 2 -3 4 27 4 30 0 43 -2
28 -4z"/>
<path d="M4968 2493 c7 -3 16 -2 19 1 4 3 -2 6 -13 5 -11 0 -14 -3 -6 -6z"/>
<path d="M4928 2483 c7 -3 16 -2 19 1 4 3 -2 6 -13 5 -11 0 -14 -3 -6 -6z"/>
<path d="M4769 2440 c-154 -50 -265 -105 -316 -156 -89 -90 -63 -143 190 -390
195 -191 513 -458 932 -785 307 -239 415 -320 416 -309 7 88 19 73 -182 223
-611 457 -977 754 -1185 964 -132 133 -163 184 -145 243 22 73 120 137 316
207 149 52 131 55 -26 3z"/>
</g>
</svg>
