<?xml version="1.0" standalone="no"?>
<!DOCTYPE svg PUBLIC "-//W3C//DTD SVG 20010904//EN"
 "http://www.w3.org/TR/2001/REC-SVG-20010904/DTD/svg10.dtd">
<svg version="1.0" xmlns="http://www.w3.org/2000/svg"
 width="920.000000pt" height="800.000000pt" viewBox="0 0 920.000000 800.000000"
 preserveAspectRatio="xMidYMid meet">

<g transform="translate(0.000000,800.000000) scale(0.100000,-0.100000)"
fill="#9ca799" stroke="none">
<path d="M5195 7184 c-22 -1 -191 -8 -375 -14 -290 -10 -554 -30 -567 -43 -2
-3 169 -7 379 -11 211 -4 410 -9 443 -12 l59 -6 -104 -37 c-269 -95 -507 -229
-752 -422 -139 -110 -379 -354 -512 -519 -96 -121 -296 -410 -368 -533 l-28
-47 -202 0 c-363 -1 -1373 -39 -1361 -51 13 -13 288 -29 513 -29 225 0 513
-14 590 -29 36 -6 41 -10 25 -16 -11 -4 -65 -25 -121 -46 -229 -89 -507 -281
-604 -418 -28 -41 -19 -36 77 40 241 191 562 332 907 398 211 41 393 55 1066
81 712 29 1061 105 1512 331 329 165 612 378 989 746 176 172 199 191 175 148
-69 -124 -130 -315 -162 -510 -9 -55 -19 -188 -23 -295 l-6 -195 -145 -102
c-340 -239 -577 -359 -846 -428 -266 -69 -482 -69 -839 0 -299 58 -513 94
-655 110 -136 15 -443 20 -512 9 -83 -14 -28 -21 160 -21 220 1 283 -7 565
-74 639 -150 663 -154 957 -154 208 0 247 3 340 23 310 68 648 230 963 463
l103 77 -4 106 c-5 137 13 339 43 492 82 408 265 687 508 776 69 25 63 37 -20
45 -80 7 -148 -14 -259 -80 -60 -37 -91 -51 -96 -43 -9 12 -1 97 12 139 8 24
7 27 -15 27 -38 0 -120 -35 -189 -79 l-62 -41 -76 40 c-186 98 -410 154 -743
186 -137 13 -644 26 -740 18z m820 -109 c118 -8 293 -38 430 -74 113 -30 264
-82 268 -92 1 -3 -26 -30 -61 -61 l-63 -56 -57 34 c-126 76 -288 109 -537 108
-271 -1 -499 -40 -805 -140 -245 -79 -388 -154 -588 -308 -274 -211 -621 -586
-717 -775 l-17 -34 174 6 c511 20 956 103 1348 254 439 169 758 370 1115 703
210 196 397 340 442 340 9 0 13 -15 13 -49 0 -42 -5 -55 -38 -95 -64 -77 -298
-282 -518 -453 -435 -338 -850 -552 -1289 -663 -276 -70 -489 -98 -972 -130
-175 -12 -354 -25 -398 -29 -44 -5 -81 -7 -83 -6 -5 4 114 199 191 315 321
481 672 809 1082 1011 234 115 480 182 734 198 123 8 158 8 346 -4z"/>
<path d="M7355 6860 c-16 -7 -12 -9 19 -9 200 -4 323 -315 294 -744 -30 -451
-242 -867 -443 -867 -121 0 -218 148 -260 399 l-13 76 -1 -67 c-2 -114 41
-284 91 -367 32 -52 97 -120 132 -138 l31 -16 -25 -16 c-55 -36 -325 -243
-465 -355 -404 -325 -813 -694 -1540 -1388 -181 -174 -332 -314 -334 -312 -6
6 147 292 215 401 293 469 625 818 1174 1232 207 156 279 205 513 350 109 68
196 125 194 128 -15 14 -410 -184 -624 -313 -385 -231 -679 -458 -969 -748
-199 -200 -324 -345 -432 -505 l-57 -83 -7 143 c-25 564 -242 964 -556 1030
-104 21 -252 0 -351 -50 -61 -32 -50 -42 22 -19 78 25 184 27 259 5 277 -83
467 -486 482 -1028 11 -380 -71 -740 -249 -1104 -150 -305 -310 -491 -501
-582 -76 -37 -83 -38 -184 -38 -98 0 -110 2 -173 32 -81 39 -178 128 -237 218
-86 132 -161 363 -181 559 -6 55 -13 103 -16 106 -3 3 -3 -63 1 -147 4 -116 3
-154 -7 -160 -6 -4 -61 -7 -122 -6 -99 2 -108 1 -90 -13 28 -21 80 -33 172
-40 l81 -7 21 -83 c12 -46 21 -86 21 -90 0 -4 -64 -5 -142 -2 l-143 5 44 -20
c40 -17 117 -35 233 -52 34 -5 38 -11 72 -81 20 -42 36 -78 36 -81 0 -3 -70
-4 -155 -1 -85 2 -152 1 -147 -3 15 -14 111 -39 227 -59 l120 -20 47 -53 c57
-63 51 -66 -84 -39 -106 22 -193 54 -275 103 -86 52 -208 181 -293 311 l-75
115 -175 7 c-703 29 -1381 124 -1809 253 -62 18 -116 32 -118 29 -10 -9 302
-154 407 -189 342 -115 763 -178 1400 -207 129 -6 258 -13 287 -16 l52 -5 17
-52 c96 -298 331 -462 692 -485 l104 -7 -107 -120 c-105 -118 -543 -638 -559
-662 -6 -10 62 -13 327 -13 l335 0 93 123 c659 866 1275 1623 1834 2252 540
608 1187 1261 1715 1730 434 386 1067 884 1328 1045 39 24 72 48 72 52 0 18
-223 -108 -385 -215 -49 -33 -196 -135 -325 -227 -129 -92 -248 -175 -264
-185 l-28 -19 26 52 c69 135 115 380 123 643 12 393 -59 624 -212 695 -52 25
-140 31 -180 14z"/>
<path d="M7196 6671 c-8 -13 25 -421 35 -421 3 0 24 86 45 190 22 105 44 190
50 190 17 0 51 -42 72 -89 l20 -43 -79 -164 c-43 -90 -73 -164 -66 -164 7 0
50 23 97 49 46 27 88 47 92 45 17 -11 -3 -288 -22 -308 -5 -5 -46 11 -94 37
-47 25 -86 43 -86 40 0 -3 23 -77 51 -163 36 -109 50 -166 45 -184 -7 -28 -85
-116 -104 -116 -13 0 -18 34 -33 250 -8 103 -15 157 -20 145 -4 -11 -24 -99
-44 -195 -20 -96 -38 -181 -41 -189 -8 -24 -42 17 -81 97 -19 40 -37 71 -40
68 -11 -11 48 -174 77 -214 57 -79 130 -106 205 -77 143 54 247 339 248 680 0
255 -54 431 -158 511 -30 22 -50 29 -100 32 -38 3 -65 0 -69 -7z"/>
<path d="M7051 6362 c-12 -49 -21 -96 -21 -104 0 -14 140 -102 148 -93 5 5
-88 266 -99 278 -4 5 -16 -31 -28 -81z"/>
<path d="M7085 6015 l-80 -43 3 -73 c3 -73 29 -158 40 -129 3 8 31 75 64 149
32 73 57 135 56 137 -2 2 -40 -17 -83 -41z"/>
<path d="M3759 5120 c-283 -51 -541 -209 -751 -460 -266 -317 -431 -709 -494
-1171 -29 -208 -19 -706 14 -766 4 -6 7 75 8 180 1 420 109 846 310 1226 220
416 525 690 860 773 120 29 334 32 444 4 98 -24 239 -91 317 -150 193 -146
336 -408 388 -710 8 -49 17 -92 20 -94 28 -28 6 189 -35 353 -104 413 -358
710 -685 800 -68 19 -322 29 -396 15z"/>
<path d="M3732 4333 c-22 -4 -23 -8 -17 -71 3 -37 12 -191 21 -342 23 -402 19
-396 87 -109 78 335 118 479 130 479 32 0 169 -178 192 -249 5 -17 -28 -82
-150 -292 -86 -149 -154 -273 -151 -276 3 -3 63 19 133 50 147 64 232 97 251
97 9 0 12 -33 12 -130 0 -197 -26 -400 -50 -400 -6 0 -91 41 -190 90 -99 50
-180 89 -180 87 0 -13 60 -173 128 -342 97 -241 98 -244 78 -283 -40 -78 -159
-180 -234 -201 -29 -9 -30 -8 -35 27 -2 21 -5 78 -6 127 -1 50 -6 176 -11 280
-5 105 -10 212 -10 240 0 30 -4 45 -9 40 -5 -6 -48 -165 -96 -355 -47 -190
-88 -351 -90 -358 -8 -21 -58 14 -126 86 -38 40 -73 92 -100 147 -22 47 -42
85 -45 85 -9 0 72 -213 109 -285 55 -108 160 -215 235 -239 198 -66 400 39
544 282 140 234 218 564 218 915 0 493 -159 820 -434 893 -48 13 -154 17 -204
7z"/>
<path d="M3447 3973 c-7 -11 -93 -301 -101 -338 l-6 -30 157 -73 c87 -39 161
-72 165 -72 4 0 -5 28 -21 63 -15 34 -62 151 -105 260 -43 108 -79 197 -81
197 -2 0 -6 -3 -8 -7z"/>
<path d="M2291 3575 c-92 -20 -194 -72 -281 -142 -83 -67 -133 -95 -199 -113
-37 -10 -46 -9 -59 4 -14 14 -12 19 19 48 20 18 72 53 117 78 84 46 103 66 55
54 -171 -42 -495 -180 -668 -284 -140 -85 -355 -254 -355 -280 0 -12 238 -67
365 -84 187 -26 477 -39 734 -34 183 4 245 9 251 18 5 7 29 97 54 199 44 180
82 393 88 496 2 49 2 50 -27 52 -17 1 -59 -5 -94 -12z"/>
<path d="M3456 3191 l-159 -67 2 -80 c1 -43 4 -99 7 -124 8 -59 35 -160 43
-160 4 0 18 19 31 43 13 23 77 133 142 244 65 111 118 205 118 208 0 12 -33 0
-184 -64z"/>
</g>
</svg>
